<?xml version="1.0" encoding="UTF-8"?>
<svg id="_레이어_2" data-name="레이어 2" xmlns="http://www.w3.org/2000/svg" viewBox="0 0 419.34 168.83">
  <defs>
    <style>
      .cls-1 {
        fill: #e87474;
      }

      .cls-2 {
        fill: #f28686;
      }

      .cls-3 {
        fill: #ed6663;
      }

      .cls-4 {
        fill: #efc5c5;
      }

      .cls-5 {
        fill: #f79f9f;
      }

      .cls-6 {
        fill: #ef7373;
      }
    </style>
  </defs>
  <g id="_레이어_1-2" data-name="레이어 1">
    <g>
      <g>
        <g>
          <path class="cls-1" d="M81.99,113.06c-2.06-4.12-3.91-8.41-5.15-12.95-9,4.61-18.7,7.2-30.52,9.93-5.33,1.23-10.74,1.96-16.09,3.02-8.09,1.6-16.92,4.04-23.06,11.04-6.94,7.92-9.77,22.14-4.25,32.08,3.45,6.22,9.44,9.89,15.54,11.36,14.76,3.57,30.89-.84,45.11-5.56,12.23-4.06,24.18-8.97,35.16-16.74,1.88-1.33,3.71-2.77,5.5-4.26-8.9-7.39-16.64-16.69-22.24-27.91Z"/>
          <g>
            <path class="cls-2" d="M131.62,100.11c.48-1.78.89-3.6,1.15-5.47,1.25-9.01-.1-18.35-2.88-26.85-2.7-8.25-8.09-19.53-16.55-19.53,1.95,5.07-3.66,18.58-9.11,27.45,1.47,2.4,2.94,4.48,4.24,5.94,7.8,8.76,15.2,14.39,23.15,18.46Z"/>
            <path class="cls-5" d="M99.99,81.64c1.3-1.46,2.76-3.54,4.24-5.94-5.45-8.87-11.06-22.38-9.11-27.45-8.46,0-13.84,11.28-16.55,19.53-2.79,8.5-4.13,17.84-2.88,26.85.26,1.87.67,3.69,1.15,5.47,7.95-4.07,15.35-9.71,23.15-18.46Z"/>
          </g>
          <path class="cls-6" d="M201.3,124.09c-6.14-7-14.97-9.44-23.06-11.04-5.36-1.06-10.76-1.79-16.09-3.02-11.82-2.73-21.52-5.32-30.52-9.93-1.24,4.54-3.09,8.83-5.15,12.95-5.6,11.21-13.34,20.51-22.24,27.91,1.79,1.49,3.62,2.93,5.5,4.26,10.98,7.77,22.93,12.69,35.16,16.74,14.22,4.72,30.35,9.13,45.11,5.56,6.1-1.48,12.09-5.14,15.54-11.36,5.52-9.95,2.69-24.17-4.25-32.08Z"/>
          <path class="cls-3" d="M126.47,113.06c2.06-4.12,3.91-8.41,5.15-12.95-7.95-4.07-15.35-9.71-23.15-18.46-1.3-1.46-2.76-3.54-4.24-5.94-1.47,2.4-2.94,4.48-4.24,5.94-7.8,8.76-15.2,14.39-23.15,18.46,1.24,4.54,3.09,8.83,5.15,12.95,5.6,11.21,13.34,20.51,22.24,27.91,8.9-7.39,16.64-16.69,22.24-27.91Z"/>
        </g>
        <circle class="cls-4" cx="104.23" cy="21.61" r="21.61"/>
      </g>
      <g>
        <g>
          <path class="cls-2" d="M234.74,97.69c-1.04,1.09-2.2,2.12-3.47,3.09s-2.53,1.86-3.8,2.68c-1.27.82-2.53,1.54-3.8,2.16-1.27.62-2.42,1.11-3.47,1.45l-4.25-9.24c1.49-.55,3.21-1.34,5.14-2.39,1.94-1.04,3.7-2.26,5.29-3.65,2.19-1.94,3.65-3.73,4.4-5.37.75-1.64,1.12-3.3,1.12-4.99v-5.44h10.81v5.52c0,.7-.06,1.42-.19,2.16s-.31,1.54-.56,2.39c1.24,1.04,2.6,2.06,4.06,3.06,1.47,1,2.95,1.91,4.44,2.76,1.49.85,2.93,1.6,4.33,2.27,1.39.67,2.63,1.21,3.72,1.6l-3.35,9.17c-1.24-.5-2.58-1.12-4.02-1.86-1.44-.75-2.92-1.59-4.44-2.54-1.52-.94-3.02-1.98-4.51-3.09s-2.91-2.3-4.25-3.54c-.45.7-.95,1.35-1.49,1.98-.55.62-1.12,1.23-1.72,1.83ZM274.56,109.25v19.68h-36.46v5.37h37.8v7.98h-48.76v-20.2h36.61v-5h-36.83v-7.83h47.64ZM274.93,75.55v30.34h-10.81v-30.34h10.81Z"/>
          <path class="cls-2" d="M297.96,78.24v13.12h15.58v-13.12h10.29v47.79h-36.16v-47.79h10.29ZM313.54,116.93v-16.48h-15.58v16.48h15.58ZM345.38,75.63v64.04h-10.81v-33.4h-8.35v-10.36h8.35v-20.28h10.81Z"/>
          <path class="cls-2" d="M376.84,107.39v-7.83h11.04v7.83h31.46v8.87h-63.15v-8.87h20.65ZM411.43,121.63v21.69h-10.88v-12.82h-37.5v-8.87h48.39ZM400.32,88.52c0-.75.01-1.42.04-2.01.02-.6.04-1.09.04-1.49v-1.71h-36.68v-8.35h47.41v3.99c0,.77-.01,1.53-.04,2.27-.03.75-.04,1.42-.04,2.01-.05,1.54-.11,3.24-.19,5.11-.07,1.86-.16,3.7-.26,5.52-.1,1.82-.2,3.53-.3,5.14-.1,1.62-.23,2.95-.37,3.99h-10.59c.1-.84.19-1.84.26-2.98.08-1.14.16-2.36.26-3.65h-35.93v-7.83h36.38Z"/>
        </g>
        <g>
          <path class="cls-3" d="M225.29,63.35c-1.77,0-3.5-.19-5.18-.56-1.69-.38-3.24-.91-4.64-1.6l2.06-6.44c1.15.72,2.38,1.29,3.71,1.7,1.33.41,2.68.61,4.05.61,1.67,0,2.95-.33,3.83-.98.88-.65,1.33-1.6,1.33-2.85,0-.92-.29-1.73-.86-2.43-.57-.7-1.48-1.29-2.73-1.74l-3.44-1.18c-2.59-.88-4.46-2.09-5.63-3.61-1.16-1.52-1.74-3.46-1.74-5.82,0-3.41,1.06-6.08,3.17-8.03,2.11-1.95,5.07-2.92,8.87-2.92,1.6,0,3.19.16,4.77.49,1.57.33,3.05.82,4.42,1.47l-2.06,6.14c-2.59-1.31-4.96-1.97-7.12-1.97-1.47,0-2.6.3-3.37.91-.77.61-1.16,1.48-1.16,2.63,0,1.87,1.2,3.23,3.59,4.08l3.44,1.18c2.52.88,4.4,2.06,5.63,3.51s1.84,3.48,1.84,6.07c0,3.57-1.11,6.36-3.32,8.35-2.21,2-5.37,3-9.46,3Z"/>
          <path class="cls-3" d="M246.17,34.01c-1.25,0-2.26-.38-3.05-1.16-.79-.77-1.18-1.78-1.18-3.02s.39-2.25,1.18-3.02c.79-.77,1.8-1.15,3.05-1.15s2.26.39,3.05,1.15c.79.77,1.18,1.78,1.18,3.02s-.39,2.25-1.18,3.02c-.79.77-1.8,1.16-3.05,1.16ZM242.59,62.85v-25.45h7.17v25.45h-7.17Z"/>
          <path class="cls-3" d="M255.17,62.85V25.51h7.08v37.34h-7.08Z"/>
          <path class="cls-3" d="M273.59,62.85l-8.06-25.45h7.32l5.16,18.48,5.31-18.48h7.27l-8.25,25.45h-8.75Z"/>
          <path class="cls-3" d="M304.99,63.35c-4.16,0-7.35-1.11-9.56-3.32-2.21-2.21-3.32-5.35-3.32-9.41,0-2.13.29-4.04.86-5.72.57-1.69,1.39-3.12,2.46-4.3,1.06-1.18,2.35-2.09,3.86-2.73s3.21-.96,5.11-.96c3.34.03,5.92,1.05,7.74,3.05,1.82,2,2.78,4.67,2.88,8.01,0,.66,0,1.36-.03,2.11s-.04,1.34-.07,1.77h-15.43c0,2.03.6,3.55,1.79,4.54,1.2,1,2.94,1.5,5.23,1.5.98,0,2.04-.11,3.17-.34s2.25-.57,3.37-1.03l1.23,5.21c-1.08.46-2.4.84-3.96,1.15-1.56.31-3.33.47-5.33.47ZM307.94,47.72c0-1.83-.34-3.27-1.01-4.3-.67-1.03-1.65-1.55-2.92-1.55-1.41,0-2.49.53-3.24,1.6-.75,1.06-1.16,2.48-1.23,4.25h8.4Z"/>
          <path class="cls-3" d="M319.59,62.85v-25.45h6.88v4.13c.66-1.47,1.56-2.61,2.73-3.42,1.16-.8,2.48-1.2,3.96-1.2.75,0,1.41.08,1.97.25v6.73c-.85-.26-1.72-.39-2.6-.39-1.15,0-2.21.23-3.19.69-.98.46-1.87,1.21-2.65,2.26v16.41h-7.08Z"/>
          <path class="cls-3" d="M339.19,62.85V27.97h7.37v14.25h2.21l8.3-14.25h8.16l-10.17,16.76,11.2,18.13h-8.6l-8.94-15.04h-2.16v15.04h-7.37Z"/>
          <path class="cls-3" d="M379.44,63.35c-1.87,0-3.55-.29-5.06-.88-1.51-.59-2.78-1.45-3.81-2.58-1.03-1.13-1.83-2.51-2.38-4.13-.56-1.62-.83-3.46-.83-5.53,0-4.23,1.08-7.5,3.24-9.83,2.16-2.33,5.16-3.49,8.99-3.49s6.72,1.13,8.87,3.39c2.15,2.26,3.22,5.42,3.22,9.48,0,4.29-1.08,7.62-3.24,10-2.16,2.38-5.16,3.56-8.99,3.56ZM379.49,57.5c1.57,0,2.77-.62,3.59-1.87.82-1.24,1.23-3.08,1.23-5.5s-.4-4.21-1.2-5.45-1.99-1.87-3.56-1.87-2.77.61-3.59,1.84c-.82,1.23-1.23,3.06-1.23,5.48s.41,4.26,1.23,5.5c.82,1.25,2,1.87,3.54,1.87Z"/>
          <path class="cls-3" d="M396.39,62.85V25.51h7.08v21.23h2.06l5.65-9.34h7.71l-7.32,11.5,7.76,13.96h-7.86l-5.7-10.76h-2.31v10.76h-7.08Z"/>
        </g>
      </g>
    </g>
  </g>
</svg>